<svg xmlns="http://www.w3.org/2000/svg" width="1200" height="252" viewBox="0 174 1200 252"><path style="fill:#fff;stroke:none" d="M0 0v600h1200V0H0z"/><path style="fill:#b5b5b5;stroke:none" d="m795.667 197.333.666.334-.666-.334z"/><path style="fill:#575757;stroke:none" d="M797 197v1h5l-5-1z"/><path style="fill:#b5b5b5;stroke:none" d="m802.667 197.333.666.334-.666-.334M729 198v1h3l-3-1z"/><path style="fill:#575757;stroke:none" d="M732 198v1h5l-5-1z"/><path style="fill:#020202;stroke:none" d="M699 279v92c0 9.137-3.566 26.815 9.001 28.786C725.212 402.486 723 384.4 723 373v-94c8.26 0 20.238 2.198 27.981-.894 5.922-2.364 6.733-10.917.96-14.078-6.476-3.547-26.182 3.803-28.623-5.087-3.03-11.031-.419-36.208 11.682-40.677 7.417-2.739 19.399 1.973 25.606-3.006 6.486-5.204 2.707-15.167-4.607-16.775-21.546-4.736-49.764 3.053-55.345 26.517-2.508 10.548 1.928 25.265-2.257 34.852-3.097 7.093-17.57.957-23.288 4.176-5.08 2.859-5.223 10.811 0 13.538C681.508 280.908 691.979 279 699 279z"/><path style="fill:#575757;stroke:none" d="m756.667 198.333.666.334-.666-.334z"/><path style="fill:#b5b5b5;stroke:none" d="m758 198 1 1-1-1m34 0 1 1-1-1z"/><path style="fill:#575757;stroke:none" d="m793 198 1 1-1-1z"/><path style="fill:#020202;stroke:none" d="M794 198.558c-19.68 5.172-8.65 34.047 11 28.884 20.436-5.369 9.094-34.165-11-28.884z"/><path style="fill:#575757;stroke:none" d="m806 198 1 1-1-1z"/><path style="fill:#b5b5b5;stroke:none" d="m725 199 1 1-1-1z"/><path style="fill:#575757;stroke:none" d="m726.667 199.333.666.334-.666-.334z"/><path style="fill:#b5b5b5;stroke:none" d="m760 199 1 1-1-1m30 0 1 1-1-1z"/><path style="fill:#575757;stroke:none" d="m808 199 1 1-1-1z"/><path style="fill:#b5b5b5;stroke:none" d="m721 200 1 1-1-1z"/><path style="fill:#575757;stroke:none" d="m722.667 200.333.666.334-.666-.334z"/><path style="fill:#b5b5b5;stroke:none" d="m761 200 1 1-1-1z"/><path style="fill:#575757;stroke:none" d="m789 200 1 1-1-1z"/><path style="fill:#b5b5b5;stroke:none" d="m810 200 1 1-1-1m52 0 1 1-1-1z"/><path style="fill:#575757;stroke:none" d="m863.667 200.333.666.334-.666-.334z"/><path style="fill:#020202;stroke:none" d="M880 327c18.178 18.178 34.874 37.78 52.999 56 5.721 5.751 12.011 16.831 21.001 17.231 10.173.452 14.543-10.824 8.811-18.231-10.524-13.598-23.8-25.702-35.796-38-6.586-6.751-12.241-14.524-20.015-20v-1c17.099-11.998 37.188-29.156 50.772-45.039 5.578-6.523 3.067-18.255-6.772-18.562-8.077-.252-15.563 9.859-21 14.771-16.773 15.15-33.376 30.518-50 45.83 0-35.116 4.22-73.188-.185-108-1.551-12.256-19.152-16.699-24.073-3.996C851.215 219.69 855 239.479 855 252v100c0 10.838-4.685 36.56 3.279 44.772 7.009 7.227 19.34 2.396 21.242-6.773 4.034-19.443.479-43.131.479-62.999z"/><path style="fill:#575757;stroke:none" d="m870.667 200.333.666.334-.666-.334z"/><path style="fill:#b5b5b5;stroke:none" d="m872 200 1 1-1-1m-153 1 1 1-1-1z"/><path style="fill:#575757;stroke:none" d="m720 201 1 1-1-1z"/><path style="fill:#b5b5b5;stroke:none" d="m762 201 1 1-1-1m25 0 1 1-1-1m24 0 1 1-1-1m49 0 1 1-1-1z"/><path style="fill:#575757;stroke:none" d="m861 201 1 1-1-1m12 0 1 1-1-1z"/><path style="fill:#b5b5b5;stroke:none" d="m717 202 1 1-1-1m69 0 1 1-1-1m26 0 1 1-1-1z"/><path style="fill:#575757;stroke:none" d="m859 202 1 1-1-1z"/><path style="fill:#b5b5b5;stroke:none" d="m875 202 1 1-1-1m-160 1 1 1-1-1z"/><path style="fill:#575757;stroke:none" d="m716 203 1 1-1-1z"/><path style="fill:#b5b5b5;stroke:none" d="m763 203 1 1-1-1m50 0 1 1-1-1z"/><path style="fill:#575757;stroke:none" d="m858 203 1 1-1-1z"/><path style="fill:#b5b5b5;stroke:none" d="m876 203 1 1-1-1z"/><path style="fill:#575757;stroke:none" d="m714 204 1 1-1-1m49 0 1 1-1-1m22 0 1 1-1-1m72 0 1 1-1-1z"/><path style="fill:#b5b5b5;stroke:none" d="m877 204 1 1-1-1m-165 1 1 1-1-1m72 0 1 1-1-1m30 0 1 1-1-1z"/><path style="fill:#575757;stroke:none" d="m856 205 1 1-1-1m-145 1 1 1-1-1z"/><path style="fill:#b5b5b5;stroke:none" d="M764 206v4h1l-1-4z"/><path style="fill:#575757;stroke:none" d="m784 206 1 1-1-1m94 0 1 1-1-1m-168 1 1 1-1-1z"/><path style="fill:#b5b5b5;stroke:none" d="m815 207 1 1-1-1z"/><path style="fill:#575757;stroke:none" d="m855 207 1 1-1-1m-146 1 1 1-1-1z"/><path style="fill:#b5b5b5;stroke:none" d="m783 208 1 1-1-1z"/><path style="fill:#575757;stroke:none" d="m815.333 208.667.334.666-.334-.666z"/><path style="fill:#b5b5b5;stroke:none" d="m879 208 1 1-1-1z"/><path style="fill:#575757;stroke:none" d="m708 209 1 1-1-1m75 0v8h1l-1-8m96 0 1 1-1-1m-172 1 1 1-1-1z"/><path style="fill:#b5b5b5;stroke:none" d="M854 210v181h1V228l-1-18m-580.333 1.333.666.334-.666-.334z"/><path style="fill:#575757;stroke:none" d="M275 211v1h3l-3-1z"/><path style="fill:#b5b5b5;stroke:none" d="m278 211 1 1-1-1m428 0 1 1-1-1z"/><path style="fill:#575757;stroke:none" d="m763 211 1 1-1-1z"/><path style="fill:#b5b5b5;stroke:none" d="m270 212 1 1-1-1z"/><path style="fill:#575757;stroke:none" d="m271 212 1 1-1-1z"/><path style="fill:#020202;stroke:none" d="M261 279v70c0 12.687-1.283 26.556 5.363 38 8.81 15.167 24.299 15.001 39.637 15 6.095 0 15.754.593 17.681-7.015 1.331-5.255-1.152-10.734-6.685-11.757-11.531-2.131-23.721 3.06-29.181-11.228-3.868-10.12-2.815-23.316-2.815-34v-59c9.032 0 22.508 2.5 30.895-1.148 5.557-2.417 6.44-10.526.972-13.673-7.889-4.54-23.779 3.702-30.264-2.782C284.178 258.971 285 254.101 285 251c-.001-9.529 5.221-38.844-9-38.913-21.741-.105-8.408 37.213-16.028 48.595-3.949 5.899-16.21.163-21.863 3.346-5.054 2.844-5.244 10.66 0 13.319C244.531 280.604 254.022 279 261 279z"/><path style="fill:#575757;stroke:none" d="m280 212 1 1-1-1z"/><path style="fill:#b5b5b5;stroke:none" d="m763 212 1 1-1-1z"/><path style="fill:#575757;stroke:none" d="m269 213 1 1-1-1z"/><path style="fill:#b5b5b5;stroke:none" d="m282 213 1 1-1-1z"/><path style="fill:#575757;stroke:none" d="m705 213 1 1-1-1m57 0 1 1-1-1z"/><path style="fill:#b5b5b5;stroke:none" d="m267 214 1 1-1-1m16 0 1 1-1-1m421 0 1 1-1-1m-438 1 1 1-1-1m18 0 1 1-1-1z"/><path style="fill:#575757;stroke:none" d="m284 216 1 1-1-1z"/><path style="fill:#b5b5b5;stroke:none" d="m703 216 1 1-1-1z"/><path style="fill:#575757;stroke:none" d="m759 216 1 1-1-1m56.333.667.334.666-.334-.666M265 217l1 1-1-1z"/><path style="fill:#b5b5b5;stroke:none" d="m285.333 217.667.334.666-.334-.666z"/><path style="fill:#575757;stroke:none" d="M737 217v1h3l-3-1z"/><path style="fill:#b5b5b5;stroke:none" d="M740 217v1h18l-18-1m43 0 1 1-1-1m-519 1 1 1-1-1m438 0 1 1-1-1z"/><path style="fill:#575757;stroke:none" d="m733 218 1 1-1-1z"/><path style="fill:#b5b5b5;stroke:none" d="m734 218 1 1-1-1m81 0 1 1-1-1z"/><path style="fill:#575757;stroke:none" d="m264 219 1 1-1-1m21 0v43h1c0-12.219 3.71-31.774-1-43m446 0 1 1-1-1z"/><path style="fill:#b5b5b5;stroke:none" d="m732 219 1 1-1-1z"/><path style="fill:#575757;stroke:none" d="m784 219 1 1-1-1m30 0 1 1-1-1z"/><path style="fill:#b5b5b5;stroke:none" d="m701 220 1 1-1-1z"/><path style="fill:#575757;stroke:none" d="m730 220 1 1-1-1z"/><path style="fill:#b5b5b5;stroke:none" d="m814 220 1 1-1-1z"/><path style="fill:#575757;stroke:none" d="m701 221 1 1-1-1z"/><path style="fill:#b5b5b5;stroke:none" d="m729 221 1 1-1-1z"/><path style="fill:#575757;stroke:none" d="m785 221 1 1-1-1m28 0 1 1-1-1z"/><path style="fill:#b5b5b5;stroke:none" d="M263 222v3h1l-1-3z"/><path style="fill:#575757;stroke:none" d="m728 222 1 1-1-1m58 0 1 1-1-1z"/><path style="fill:#b5b5b5;stroke:none" d="m700.333 223.667.334.666-.334-.666z"/><path style="fill:#575757;stroke:none" d="m727 223 1 1-1-1z"/><path style="fill:#b5b5b5;stroke:none" d="m812 223 1 1-1-1m-85 1 1 1-1-1m84 0 1 1-1-1z"/><path style="fill:#575757;stroke:none" d="M263 225v4h1l-1-4m437 0 1 1-1-1m26 0 1 1-1-1m63 0 1 1-1-1m20 0 1 1-1-1z"/><path style="fill:#b5b5b5;stroke:none" d="m726 226 1 1-1-1m64 0 1 1-1-1z"/><path style="fill:#575757;stroke:none" d="m791 226 1 1-1-1z"/><path style="fill:#b5b5b5;stroke:none" d="m808 226 1 1-1-1m-108.667 1.667.334.666-.334-.666M792 227l1 1-1-1z"/><path style="fill:#575757;stroke:none" d="m793.667 227.333.666.334-.666-.334M805 227l1 1-1-1z"/><path style="fill:#b5b5b5;stroke:none" d="m806 227 1 1-1-1z"/><path style="fill:#575757;stroke:none" d="m725 228 1 1-1-1z"/><path style="fill:#b5b5b5;stroke:none" d="M796 228v1h7l-7-1z"/><path style="fill:#575757;stroke:none" d="m699.333 229.667.334.666-.334-.666z"/><path style="fill:#b5b5b5;stroke:none" d="m725 229 1 1-1-1z"/><path style="fill:#575757;stroke:none" d="m724.333 232.667.334.666-.334-.666z"/><path style="fill:#b5b5b5;stroke:none" d="M262 233v4h1l-1-4m436 1v3h1l-1-3m26 0v4h1l-1-4z"/><path style="fill:#575757;stroke:none" d="M262 237v4h1l-1-4m436 0v25h1l-1-25z"/><path style="fill:#b5b5b5;stroke:none" d="M261 245v4h1l-1-4z"/><path style="fill:#575757;stroke:none" d="M723 246v16h1l-1-16m-462 3v4h1l-1-4z"/><path style="fill:#b5b5b5;stroke:none" d="M488 255v1h4l-4-1z"/><path style="fill:#3dabc7;stroke:none" d="M536 318c-26.619-2.104-54.796-9.997-80 3.263-27.99 14.726-25.396 56.885 1 71.424 16.483 9.078 39.4 10.179 57 3.769 5.787-2.108 11.29-5.319 15.911-9.38 2.11-1.855 4.856-5.786 8.104-4.873 5.855 1.645 11 9.108 16.985 11.758 17.107 7.572 42.382 9.462 60 2.575 5.759-2.251 15.752-6.355 16.417-13.54.442-4.774-3.8-8.747-8.417-8.703-12.57.121-24.642 6.862-38 6.703-12.215-.145-29.076-4.856-33.196-17.996-2.491-7.947.029-16.924.196-25 27.64.571 56.037 10.89 82-4.348 30.126-17.681 20.384-60.637-8-73.34-17.267-7.727-41.261-7.465-58 1.589-6.906 3.736-11.724 9.638-18 14.099-10.237-21.95-48.787-23.363-69-18.985-7.78 1.684-25.49 7.383-23.702 17.97 2.233 13.223 27.45.173 35.701.016 15.686-.299 38.89.204 44.073 18.999 2.222 8.059-.436 15.952-1.072 24z"/><path style="fill:#b5b5b5;stroke:none" d="M504 255v1h5l-5-1m84 0v1h3l-3-1m17 0v1h4l-4-1m-122.333 1.333.666.334-.666-.334m32 0 .666.334-.666-.334M583 256l1 1-1-1m30 0 1 1-1-1m-353 1v4h1l-1-4m218 0 1 1-1-1m42 0 1 1-1-1m59 0 1 1-1-1m38.667.333.666.334-.666-.334M419 258l1 1-1-1m56 0 1 1-1-1m49 0 1 1-1-1m52 0 1 1-1-1m45 0 1 1-1-1m-210.333 1.333.666.334-.666-.334z"/><path style="fill:#575757;stroke:none" d="m412.667 259.333.666.334-.666-.334z"/><path style="fill:#020202;stroke:none" d="M381 288c-2.071-7.007.944-15.655-3.703-21.891-5.439-7.3-19.424-4.978-21.863 3.892C352.99 278.889 355 290.798 355 300v65c0 9.275-3.894 28.706 6.015 33.821C373.3 405.162 379.983 393.309 380 383v-56c0-10.823-.839-21.702 5.789-31 5.378-7.544 13.149-12.804 22.211-14.714 7.394-1.558 18.874.562 20.641-9.287 2.28-12.707-10.938-13.594-19.641-11.571-13.13 3.052-25.574 13.961-28 27.572z"/><path style="fill:#575757;stroke:none" d="m422 259 1 1-1-1z"/><path style="fill:#b5b5b5;stroke:none" d="m423 259 1 1-1-1m49 0 1 1-1-1m55 0 1 1-1-1m46 0 1 1-1-1z"/><path style="fill:#575757;stroke:none" d="m947.667 259.333.666.334-.666-.334M953 259l1 1-1-1z"/><path style="fill:#b5b5b5;stroke:none" d="m954 259 1 1-1-1m-548 1 1 1-1-1z"/><path style="fill:#575757;stroke:none" d="m407.667 260.333.666.334-.666-.334M424 260l1 1-1-1z"/><path style="fill:#b5b5b5;stroke:none" d="m470 260 1 1-1-1m60 0 1 1-1-1m96 0 1 1-1-1z"/><path style="fill:#575757;stroke:none" d="m945 260 1 1-1-1m10 0 1 1-1-1m-695 1 1 1-1-1z"/><path style="fill:#b5b5b5;stroke:none" d="m363 261 1 1-1-1z"/><path style="fill:#575757;stroke:none" d="M364 261v1h6l-6-1z"/><path style="fill:#b5b5b5;stroke:none" d="m370.667 261.333.666.334-.666-.334z"/><path style="fill:#575757;stroke:none" d="m404 261 1 1-1-1m21 0 1 1-1-1z"/><path style="fill:#b5b5b5;stroke:none" d="m468 261 1 1-1-1m65 0 1 1-1-1m95 0 1 1-1-1m167 0 1 1-1-1z"/><path style="fill:#575757;stroke:none" d="m796 261 1 1-1-1z"/><path style="fill:#020202;stroke:none" d="M797 261.537c-13.229 3.041-10 20.349-10 30.463v86c0 10.957 1.563 25.84 16.996 21.566C815.531 396.372 812 377.91 812 369v-85c0-9.64-.426-25.813-15-22.463z"/><path style="fill:#575757;stroke:none" d="m803 261 1 1-1-1z"/><path style="fill:#b5b5b5;stroke:none" d="m804 261 1 1-1-1m139 0 1 1-1-1m14 0 1 1-1-1m-717.333 1.333.666.334-.666-.334z"/><path style="fill:#575757;stroke:none" d="M241 262v1h19l-19-1m45 0v1h28l-28-1z"/><path style="fill:#b5b5b5;stroke:none" d="m314 262 1 1-1-1m46 0 1 1-1-1z"/><path style="fill:#575757;stroke:none" d="m361 262 1 1-1-1z"/><path style="fill:#b5b5b5;stroke:none" d="m373 262 1 1-1-1m28 0 1 1-1-1z"/><path style="fill:#575757;stroke:none" d="m402 262 1 1-1-1m24 0 1 1-1-1z"/><path style="fill:#b5b5b5;stroke:none" d="m466 262 1 1-1-1m69 0 1 1-1-1m95 0 1 1-1-1m46.667.333.666.334-.666-.334z"/><path style="fill:#575757;stroke:none" d="M678 262v1h20l-20-1m46 0v1h26l-26-1z"/><path style="fill:#b5b5b5;stroke:none" d="m750 262 1 1-1-1z"/><path style="fill:#575757;stroke:none" d="m793 262 1 1-1-1m12 0 1 1-1-1z"/><path style="fill:#b5b5b5;stroke:none" d="m806 262 1 1-1-1m136 0 1 1-1-1m16 0 1 1-1-1m-721 1 1 1-1-1z"/><path style="fill:#575757;stroke:none" d="m316 263 1 1-1-1z"/><path style="fill:#b5b5b5;stroke:none" d="m317 263 1 1-1-1z"/><path style="fill:#575757;stroke:none" d="m359 263 1 1-1-1z"/><path style="fill:#b5b5b5;stroke:none" d="m375 263 1 1-1-1m24 0 1 1-1-1z"/><path style="fill:#575757;stroke:none" d="m400 263 1 1-1-1z"/><path style="fill:#b5b5b5;stroke:none" d="m427 263 1 1-1-1m37 0 1 1-1-1m101 0 1 1-1-1m67 0 1 1-1-1m42 0 1 1-1-1z"/><path style="fill:#575757;stroke:none" d="m752 263 1 1-1-1z"/><path style="fill:#b5b5b5;stroke:none" d="m791 263 1 1-1-1z"/><path style="fill:#575757;stroke:none" d="m807 263 1 1-1-1z"/><path style="fill:#b5b5b5;stroke:none" d="m941 263 1 1-1-1m18 0 1 1-1-1z"/><path style="fill:#575757;stroke:none" d="m236 264 1 1-1-1z"/><path style="fill:#b5b5b5;stroke:none" d="m318 264 1 1-1-1z"/><path style="fill:#575757;stroke:none" d="m358 264 1 1-1-1z"/><path style="fill:#b5b5b5;stroke:none" d="m376 264 1 1-1-1z"/><path style="fill:#575757;stroke:none" d="m398 264 1 1-1-1z"/><path style="fill:#b5b5b5;stroke:none" d="m563 264 1 1-1-1z"/><path style="fill:#575757;stroke:none" d="m673 264 1 1-1-1m80 0 1 1-1-1z"/><path style="fill:#b5b5b5;stroke:none" d="m790 264 1 1-1-1z"/><path style="fill:#575757;stroke:none" d="m808 264 1 1-1-1z"/><path style="fill:#b5b5b5;stroke:none" d="m940 264 1 1-1-1z"/><path style="fill:#575757;stroke:none" d="m235 265 1 1-1-1z"/><path style="fill:#b5b5b5;stroke:none" d="m319 265 1 1-1-1z"/><path style="fill:#575757;stroke:none" d="m357 265 1 1-1-1z"/><path style="fill:#b5b5b5;stroke:none" d="m377 265 1 1-1-1m19 0 1 1-1-1m32 0 1 1-1-1m112 0 1 1-1-1m22 0 1 1-1-1m73 0 1 1-1-1z"/><path style="fill:#575757;stroke:none" d="m672 265 1 1-1-1m82 0 1 1-1-1z"/><path style="fill:#b5b5b5;stroke:none" d="m789 265 1 1-1-1z"/><path style="fill:#575757;stroke:none" d="m809 265 1 1-1-1z"/><path style="fill:#b5b5b5;stroke:none" d="m939 265 1 1-1-1z"/><path style="fill:#575757;stroke:none" d="m960 265 1 1-1-1z"/><path style="fill:#b5b5b5;stroke:none" d="m234 266 1 1-1-1z"/><path style="fill:#575757;stroke:none" d="m356 266 1 1-1-1z"/><path style="fill:#b5b5b5;stroke:none" d="m378 266 1 1-1-1z"/><path style="fill:#575757;stroke:none" d="m395 266 1 1-1-1m33 0 1 1-1-1z"/><path style="fill:#b5b5b5;stroke:none" d="m460 266 1 1-1-1m211 0 1 1-1-1m84 0 1 1-1-1z"/><path style="fill:#575757;stroke:none" d="m810 266 1 1-1-1m128 0 1 1-1-1m-704 1 1 1-1-1z"/><path style="fill:#b5b5b5;stroke:none" d="m320 267 1 1-1-1m35 0 1 1-1-1z"/><path style="fill:#575757;stroke:none" d="m378 267 1 1-1-1m16 0 1 1-1-1z"/><path style="fill:#b5b5b5;stroke:none" d="m459 267 1 1-1-1m100 0 1 1-1-1z"/><path style="fill:#575757;stroke:none" d="m671 267 1 1-1-1m117 0 1 1-1-1m149 0 1 1-1-1z"/><path style="fill:#b5b5b5;stroke:none" d="m961 267 1 1-1-1z"/><path style="fill:#575757;stroke:none" d="m320 268 1 1-1-1m35 0 1 1-1-1z"/><path style="fill:#b5b5b5;stroke:none" d="m379 268 1 1-1-1m13 0 1 1-1-1m66 0 1 1-1-1m86 0 1 1-1-1m14 0 1 1-1-1m198 0v5h1l-1-5z"/><path style="fill:#575757;stroke:none" d="m811.333 268.667.334.666-.334-.666M936 268l1 1-1-1m25 0v5h1l-1-5z"/><path style="fill:#b5b5b5;stroke:none" d="M233 269v4h1l-1-4z"/><path style="fill:#575757;stroke:none" d="m379.333 269.667.334.666-.334-.666z"/><path style="fill:#b5b5b5;stroke:none" d="m391 269 1 1-1-1m38.333.667.334.666-.334-.666M545 269l1 1-1-1m12 0 1 1-1-1m83 0 1 1-1-1m30 0v3h1l-1-3m117 0 1 1-1-1z"/><path style="fill:#575757;stroke:none" d="m935 269 1 1-1-1z"/><path style="fill:#b5b5b5;stroke:none" d="M354 270v122h1v-85c0-10.634 3.108-27.211-1-37m36 0 1 1-1-1m156 0 1 1-1-1m95 0 1 1-1-1z"/><path style="fill:#575757;stroke:none" d="m787 270 1 1-1-1m147 0 1 1-1-1z"/><path style="fill:#b5b5b5;stroke:none" d="m389 271 1 1-1-1m158 0 1 1-1-1m8 0 1 1-1-1m87 0 1 1-1-1m170 0v120h1v-84l-1-36z"/><path style="fill:#575757;stroke:none" d="m933 271 1 1-1-1z"/><path style="fill:#b5b5b5;stroke:none" d="m388 272 1 1-1-1m166 0 1 1-1-1m35 0v1h3l-3-1z"/><path style="fill:#fff;stroke:none" d="M556 321c11.404.9 22.518 3 34 3 6.42 0 12.743.22 19-1.49 16.361-4.472 25.214-25.6 13.66-39.495-17.257-20.752-53.135-10.197-61.953 12.985-2.994 7.87-4.637 16.588-4.707 25z"/><path style="fill:#b5b5b5;stroke:none" d="M600 272v1h3l-3-1m331 0 1 1-1-1z"/><path style="fill:#575757;stroke:none" d="m320 273 1 1-1-1m108 0 1 1-1-1z"/><path style="fill:#b5b5b5;stroke:none" d="m456 273 1 1-1-1m97 0 1 1-1-1m31.667.333.666.334-.666-.334M606 273l1 1-1-1m324 0 1 1-1-1m31 0 1 1-1-1z"/><path style="fill:#575757;stroke:none" d="m234 274 1 1-1-1z"/><path style="fill:#b5b5b5;stroke:none" d="m320 274 1 1-1-1z"/><path style="fill:#575757;stroke:none" d="m387 274 1 1-1-1z"/><path style="fill:#b5b5b5;stroke:none" d="m428 274 1 1-1-1m71 0 1 1-1-1m53 0 1 1-1-1m29.667.333.666.334-.666-.334M609 274l1 1-1-1z"/><path style="fill:#575757;stroke:none" d="m671 274 1 1-1-1z"/><path style="fill:#b5b5b5;stroke:none" d="m929 274 1 1-1-1z"/><path style="fill:#575757;stroke:none" d="m960 274 1 1-1-1m-641 1 1 1-1-1m67 0 1 1-1-1z"/><path style="fill:#b5b5b5;stroke:none" d="m486.667 275.333.666.334-.666-.334m24 0 .666.334-.666-.334M550 275l1 1-1-1m29 0 1 1-1-1m33 0 1 1-1-1m33 0 1 1-1-1m110 0 1 1-1-1m173 0 1 1-1-1m32 0 1 1-1-1m-725 1 1 1-1-1m150 0 1 1-1-1m42 0 1 1-1-1m54.667.333.666.334-.666-.334m34 0 .666.334-.666-.334M577 276l1 1-1-1m37 0 1 1-1-1m32 0 1 1-1-1m26 0 1 1-1-1z"/><path style="fill:#575757;stroke:none" d="m754 276 1 1-1-1z"/><path style="fill:#b5b5b5;stroke:none" d="m927 276 1 1-1-1m32 0 1 1-1-1z"/><path style="fill:#575757;stroke:none" d="m237 277 1 1-1-1m80 0 1 1-1-1m109 0 1 1-1-1z"/><path style="fill:#b5b5b5;stroke:none" d="m478 277 1 1-1-1m41 0 1 1-1-1m97 0 1 1-1-1m57 0 1 1-1-1m80 0 1 1-1-1z"/><path style="fill:#575757;stroke:none" d="m926 277 1 1-1-1z"/><path style="fill:#b5b5b5;stroke:none" d="m958 277 1 1-1-1m-719 1 1 1-1-1z"/><path style="fill:#575757;stroke:none" d="m240.667 278.333.666.334-.666-.334m74 0 .666.334-.666-.334z"/><path style="fill:#b5b5b5;stroke:none" d="m316 278 1 1-1-1z"/><path style="fill:#575757;stroke:none" d="m384 278 1 1-1-1m41 0 1 1-1-1z"/><path style="fill:#b5b5b5;stroke:none" d="m458 278 1 1-1-1m17 0 1 1-1-1m47 0 1 1-1-1m52 0 1 1-1-1m73 0 1 1-1-1m28 0 1 1-1-1z"/><path style="fill:#575757;stroke:none" d="m676.667 278.333.666.334-.666-.334M750 278l1 1-1-1z"/><path style="fill:#b5b5b5;stroke:none" d="m751 278 1 1-1-1z"/><path style="fill:#575757;stroke:none" d="m925 278 1 1-1-1z"/><path style="fill:#b5b5b5;stroke:none" d="m957 278 1 1-1-1z"/><path style="fill:#575757;stroke:none" d="M260 279v86h1v-59l-1-27m25 0v77h1v-53l-1-24m138 0 1 1-1-1z"/><path style="fill:#b5b5b5;stroke:none" d="m424 279 1 1-1-1m48 0 1 1-1-1m52 0 1 1-1-1z"/><path style="fill:#575757;stroke:none" d="M698 279v112h1v-78l-1-34m25 0v112h1v-78l-1-34m201 0 1 1-1-1z"/><path style="fill:#b5b5b5;stroke:none" d="m956 279 1 1-1-1z"/><path style="fill:#575757;stroke:none" d="m383 280 1 1-1-1m29 0v1h3l-3-1z"/><path style="fill:#b5b5b5;stroke:none" d="M415 280v1h7l-7-1m45 0 1 1-1-1m10 0 1 1-1-1m56 0 1 1-1-1m45 0 1 1-1-1m49 0 1 1-1-1z"/><path style="fill:#575757;stroke:none" d="m923 280 1 1-1-1z"/><path style="fill:#b5b5b5;stroke:none" d="m955 280 1 1-1-1z"/><path style="fill:#575757;stroke:none" d="m406.667 281.333.666.334-.666-.334z"/><path style="fill:#b5b5b5;stroke:none" d="m408.667 281.333.666.334-.666-.334m54 0 .666.334-.666-.334m4 0 .666.334-.666-.334M528 281l1 1-1-1m42 0 1 1-1-1m51 0 1 1-1-1z"/><path style="fill:#575757;stroke:none" d="m922 281 1 1-1-1m-540 1 1 1-1-1m21 0 1 1-1-1z"/><path style="fill:#b5b5b5;stroke:none" d="m404 282 1 1-1-1m125 0 1 1-1-1m40 0 1 1-1-1m53 0 1 1-1-1z"/><path style="fill:#575757;stroke:none" d="m952 282 1 1-1-1m-552 1 1 1-1-1z"/><path style="fill:#b5b5b5;stroke:none" d="m401 283 1 1-1-1m167 0 1 1-1-1m351 0 1 1-1-1z"/><path style="fill:#575757;stroke:none" d="m951 283 1 1-1-1z"/><path style="fill:#b5b5b5;stroke:none" d="m381 284 1 1-1-1z"/><path style="fill:#575757;stroke:none" d="m398 284 1 1-1-1z"/><path style="fill:#b5b5b5;stroke:none" d="m399 284 1 1-1-1m168 0 1 1-1-1m83 0 1 1-1-1m268 0 1 1-1-1z"/><path style="fill:#575757;stroke:none" d="m950 284 1 1-1-1m-554 1 1 1-1-1z"/><path style="fill:#b5b5b5;stroke:none" d="m397 285 1 1-1-1m227 0 1 1-1-1m293 0 1 1-1-1z"/><path style="fill:#575757;stroke:none" d="m949 285 1 1-1-1z"/><path style="fill:#b5b5b5;stroke:none" d="m380 286 1 1-1-1m15 0 1 1-1-1m138 0 1 1-1-1m383 0 1 1-1-1m32 0 1 1-1-1z"/><path style="fill:#575757;stroke:none" d="m380 287 1 1-1-1m13 0 1 1-1-1z"/><path style="fill:#b5b5b5;stroke:none" d="m534 287 1 1-1-1m117 0 1 1-1-1m264 0 1 1-1-1m32 0 1 1-1-1m-555 1 1 1-1-1m172 0 1 1-1-1m350 0 1 1-1-1m32 0 1 1-1-1m-555 1 1 1-1-1m144 0 1 1-1-1m91 0 1 1-1-1z"/><path style="fill:#575757;stroke:none" d="m913 289 1 1-1-1z"/><path style="fill:#b5b5b5;stroke:none" d="m945 289 1 1-1-1m-555 1 1 1-1-1m173 0 1 1-1-1z"/><path style="fill:#575757;stroke:none" d="m912 290 1 1-1-1m31 0 1 1-1-1z"/><path style="fill:#b5b5b5;stroke:none" d="m389 291 1 1-1-1m147 0 1 1-1-1z"/><path style="fill:#575757;stroke:none" d="m911 291 1 1-1-1m31 0 1 1-1-1z"/><path style="fill:#b5b5b5;stroke:none" d="m388 292 1 1-1-1m239 0v3h1l-1-3z"/><path style="fill:#575757;stroke:none" d="m910 292 1 1-1-1m31 0 1 1-1-1z"/><path style="fill:#b5b5b5;stroke:none" d="m387 293 1 1-1-1m265 0v7h1l-1-7z"/><path style="fill:#575757;stroke:none" d="m909 293 1 1-1-1m31 0 1 1-1-1m-554 1 1 1-1-1z"/><path style="fill:#b5b5b5;stroke:none" d="m907 294 1 1-1-1z"/><path style="fill:#575757;stroke:none" d="m939 294 1 1-1-1z"/><path style="fill:#b5b5b5;stroke:none" d="m537.333 295.667.334.666-.334-.666M906 295l1 1-1-1m32 0 1 1-1-1m-553 1 1 1-1-1m175 0 1 1-1-1m345 0 1 1-1-1m32 0 1 1-1-1z"/><path style="fill:#575757;stroke:none" d="m384 297 1 1-1-1z"/><path style="fill:#b5b5b5;stroke:none" d="m904 297 1 1-1-1m32 0 1 1-1-1m-33 1 1 1-1-1z"/><path style="fill:#575757;stroke:none" d="m383 299 1 1-1-1z"/><path style="fill:#b5b5b5;stroke:none" d="m559 299 1 1-1-1m68 0v4h1l-1-4m275 0 1 1-1-1z"/><path style="fill:#575757;stroke:none" d="m933 299 1 1-1-1m-32 1 1 1-1-1m31 0 1 1-1-1m-550 1 1 1-1-1m518 0 1 1-1-1m31 0 1 1-1-1z"/><path style="fill:#b5b5b5;stroke:none" d="m382 302 1 1-1-1m176 0 1 1-1-1z"/><path style="fill:#575757;stroke:none" d="m899 302 1 1-1-1m31 0 1 1-1-1m-32 1 1 1-1-1z"/><path style="fill:#b5b5b5;stroke:none" d="m929 303 1 1-1-1z"/><path style="fill:#575757;stroke:none" d="m381 304 1 1-1-1z"/><path style="fill:#b5b5b5;stroke:none" d="M537 304v4h1l-1-4z"/><path style="fill:#575757;stroke:none" d="m897 304 1 1-1-1z"/><path style="fill:#b5b5b5;stroke:none" d="m928 304 1 1-1-1m-547 1 1 1-1-1m514 0 1 1-1-1m32 0 1 1-1-1m-369.667 1.667.334.666-.334-.666M626 306l1 1-1-1m268 0 1 1-1-1m32 0 1 1-1-1m-274.667 1.667.334.666-.334-.666M893 307l1 1-1-1z"/><path style="fill:#575757;stroke:none" d="m380.333 308.667.334.666-.334-.666z"/><path style="fill:#b5b5b5;stroke:none" d="m892 308 1 1-1-1z"/><path style="fill:#575757;stroke:none" d="m923 308 1 1-1-1z"/><path style="fill:#b5b5b5;stroke:none" d="m625 309 1 1-1-1m266 0 1 1-1-1z"/><path style="fill:#575757;stroke:none" d="m922 309 1 1-1-1z"/><path style="fill:#b5b5b5;stroke:none" d="M380 310v3h1l-1-3m510 0 1 1-1-1z"/><path style="fill:#575757;stroke:none" d="m921 310 1 1-1-1z"/><path style="fill:#b5b5b5;stroke:none" d="M556 311v3h1l-1-3m68 0 1 1-1-1m26.333.667.334.666-.334-.666z"/><path style="fill:#575757;stroke:none" d="m889 311 1 1-1-1m31 0 1 1-1-1z"/><path style="fill:#b5b5b5;stroke:none" d="m536.333 312.667.334.666-.334-.666z"/><path style="fill:#575757;stroke:none" d="m888 312 1 1-1-1z"/><path style="fill:#b5b5b5;stroke:none" d="m919 312 1 1-1-1m-434 1v1h17l-17-1z"/><path style="fill:#575757;stroke:none" d="m887 313 1 1-1-1z"/><path style="fill:#b5b5b5;stroke:none" d="m918 313 1 1-1-1m-443 1v1h3l-3-1m35 0v1h3l-3-1m112 0 1 1-1-1z"/><path style="fill:#575757;stroke:none" d="m886 314 1 1-1-1z"/><path style="fill:#b5b5b5;stroke:none" d="m917 314 1 1-1-1m-446.333 1.333.666.334-.666-.334m49 0 .666.334-.666-.334z"/><path style="fill:#575757;stroke:none" d="m885 315 1 1-1-1z"/><path style="fill:#b5b5b5;stroke:none" d="m916 315 1 1-1-1m-449 1 1 1-1-1m58.667.333.666.334-.666-.334M620 316l1 1-1-1m263 0 1 1-1-1z"/><path style="fill:#575757;stroke:none" d="m914 316 1 1-1-1z"/><path style="fill:#b5b5b5;stroke:none" d="m464 317 1 1-1-1m67.667.333.666.334-.666-.334M619 317l1 1-1-1m29 0 1 1-1-1m234 0 1 1-1-1z"/><path style="fill:#575757;stroke:none" d="m913 317 1 1-1-1z"/><path style="fill:#b5b5b5;stroke:none" d="m461 318 1 1-1-1m94 0v3h1l-1-3m326 0 1 1-1-1z"/><path style="fill:#575757;stroke:none" d="m912 318 1 1-1-1z"/><path style="fill:#b5b5b5;stroke:none" d="m459 319 1 1-1-1m157 0 1 1-1-1m31 0 1 1-1-1m233 0 1 1-1-1z"/><path style="fill:#575757;stroke:none" d="m911 319 1 1-1-1z"/><path style="fill:#b5b5b5;stroke:none" d="m457 320 1 1-1-1m157 0 1 1-1-1m296 0 1 1-1-1m-455 1 1 1-1-1m103 0v1h3l-3-1m54 0 1 1-1-1m34 0 1 1-1-1m263 0 1 1-1-1m-456 1 1 1-1-1m113 0v1h3l-3-1m43 0 1 1-1-1m299 0 1 1-1-1m-333 1v1h3l-3-1m29.667.333.666.334-.666-.334z"/><path style="fill:#575757;stroke:none" d="m907 323 1 1-1-1z"/><path style="fill:#b5b5b5;stroke:none" d="M585 324v1h11l-11-1z"/><path style="fill:#575757;stroke:none" d="m908 324 1 1-1-1z"/><path style="fill:#b5b5b5;stroke:none" d="m449 325 1 1-1-1m194 0 1 1-1-1z"/><path style="fill:#575757;stroke:none" d="m909 325 1 1-1-1z"/><path style="fill:#b5b5b5;stroke:none" d="m448 326 1 1-1-1m194 0 1 1-1-1z"/><path style="fill:#575757;stroke:none" d="m910 326 1 1-1-1z"/><path style="fill:#b5b5b5;stroke:none" d="m447 327 1 1-1-1m433 0 1 1-1-1z"/><path style="fill:#575757;stroke:none" d="m911 327 1 1-1-1z"/><path style="fill:#b5b5b5;stroke:none" d="m446 328 1 1-1-1m435 0 1 1-1-1m31 0 1 1-1-1m-467 1 1 1-1-1m194 0 1 1-1-1m243 0 1 1-1-1m31 0 1 1-1-1m-275 1 1 1-1-1m245 0 1 1-1-1m31 0 1 1-1-1m-427 1v1h4l-4-1z"/><path style="fill:#fff;stroke:none" d="M533 335c-9.701-1.801-20.146-2.631-30-2.989-7.548-.275-14.516-.932-22 .889-16.642 4.048-27.252 24.275-15.606 39.096 15.803 20.114 50.593 12.28 60.82-8.996 4.202-8.74 5.581-18.477 6.786-28z"/><path style="fill:#b5b5b5;stroke:none" d="M496 331v1h4l-4-1m388 0 1 1-1-1m31 0 1 1-1-1m-433.333 1.333.666.334-.666-.334M508 332v1h5l-5-1m377 0 1 1-1-1m31 0 1 1-1-1m-474 1 1 1-1-1m36 0 1 1-1-1m42 0v1h5l-5-1m114 0 1 1-1-1z"/><path style="fill:#575757;stroke:none" d="m886 333 1 1-1-1z"/><path style="fill:#b5b5b5;stroke:none" d="m917 333 1 1-1-1m-442 1 1 1-1-1m55.667.333.666.334-.666-.334M632 334l1 1-1-1z"/><path style="fill:#575757;stroke:none" d="m887 334 1 1-1-1z"/><path style="fill:#b5b5b5;stroke:none" d="m918 334 1 1-1-1m-477 1 1 1-1-1m32 0 1 1-1-1m157 0 1 1-1-1z"/><path style="fill:#575757;stroke:none" d="m888 335 1 1-1-1z"/><path style="fill:#b5b5b5;stroke:none" d="m919 335 1 1-1-1m-448 1 1 1-1-1m157 0 1 1-1-1z"/><path style="fill:#575757;stroke:none" d="m889 336 1 1-1-1z"/><path style="fill:#b5b5b5;stroke:none" d="m626 337 1 1-1-1z"/><path style="fill:#575757;stroke:none" d="m890 337 1 1-1-1z"/><path style="fill:#b5b5b5;stroke:none" d="m468 338 1 1-1-1m64 0v3h1l-1-3m20.333.667.334.666-.334-.666m5.334-.334.666.334-.666-.334M623 338l1 1-1-1z"/><path style="fill:#575757;stroke:none" d="m891 338 1 1-1-1z"/><path style="fill:#b5b5b5;stroke:none" d="m439 339 1 1-1-1m28 0 1 1-1-1m96.667.333.666.334-.666-.334M620 339l1 1-1-1z"/><path style="fill:#575757;stroke:none" d="m892 339 1 1-1-1m30 0 1 1-1-1z"/><path style="fill:#b5b5b5;stroke:none" d="m466 340 1 1-1-1m104 0v1h3l-3-1m45.667.333.666.334-.666-.334z"/><path style="fill:#575757;stroke:none" d="m923 340 1 1-1-1z"/><path style="fill:#b5b5b5;stroke:none" d="m438 341 1 1-1-1m140 0v1h3l-3-1m30 0v1h3l-3-1z"/><path style="fill:#575757;stroke:none" d="m924 341 1 1-1-1m1 1 1 1-1-1z"/><path style="fill:#b5b5b5;stroke:none" d="m464 343 1 1-1-1m431 0 1 1-1-1z"/><path style="fill:#575757;stroke:none" d="m926 343 1 1-1-1z"/><path style="fill:#b5b5b5;stroke:none" d="m437.333 344.667.334.666-.334-.666m114 0 .334.666-.334-.666M896 344l1 1-1-1z"/><path style="fill:#575757;stroke:none" d="m927 344 1 1-1-1z"/><path style="fill:#b5b5b5;stroke:none" d="m463 345 1 1-1-1m68.333.667.334.666-.334-.666M897 345l1 1-1-1z"/><path style="fill:#575757;stroke:none" d="m928 345 1 1-1-1z"/><path style="fill:#b5b5b5;stroke:none" d="m898 346 1 1-1-1z"/><path style="fill:#575757;stroke:none" d="m929 346 1 1-1-1z"/><path style="fill:#b5b5b5;stroke:none" d="m462 347 1 1-1-1m437 0 1 1-1-1m31 0 1 1-1-1m-30 1 1 1-1-1m31 0 1 1-1-1m-494.667 1.667.334.666-.334-.666z"/><path style="fill:#575757;stroke:none" d="m901 349 1 1-1-1z"/><path style="fill:#b5b5b5;stroke:none" d="m932 349 1 1-1-1m-471 1 1 1-1-1m69.333.667.334.666-.334-.666z"/><path style="fill:#575757;stroke:none" d="m902 350 1 1-1-1z"/><path style="fill:#b5b5b5;stroke:none" d="m933 350 1 1-1-1z"/><path style="fill:#575757;stroke:none" d="m903 351 1 1-1-1z"/><path style="fill:#b5b5b5;stroke:none" d="m934 351 1 1-1-1z"/><path style="fill:#575757;stroke:none" d="m904 352 1 1-1-1z"/><path style="fill:#b5b5b5;stroke:none" d="m935 352 1 1-1-1z"/><path style="fill:#575757;stroke:none" d="m905 353 1 1-1-1z"/><path style="fill:#b5b5b5;stroke:none" d="m936 353 1 1-1-1m-407 1 1 1-1-1z"/><path style="fill:#575757;stroke:none" d="m906 354 1 1-1-1z"/><path style="fill:#b5b5b5;stroke:none" d="m937 354 1 1-1-1z"/><path style="fill:#575757;stroke:none" d="m907 355 1 1-1-1z"/><path style="fill:#b5b5b5;stroke:none" d="m528 357 1 1-1-1z"/><path style="fill:#575757;stroke:none" d="m940 358 1 1-1-1z"/><path style="fill:#b5b5b5;stroke:none" d="m910 359 1 1-1-1z"/><path style="fill:#575757;stroke:none" d="m941 359 1 1-1-1z"/><path style="fill:#b5b5b5;stroke:none" d="m527 360 1 1-1-1m384 0 1 1-1-1z"/><path style="fill:#575757;stroke:none" d="m942 360 1 1-1-1z"/><path style="fill:#b5b5b5;stroke:none" d="m912 361 1 1-1-1z"/><path style="fill:#575757;stroke:none" d="m943 361 1 1-1-1z"/><path style="fill:#b5b5b5;stroke:none" d="m526 362 1 1-1-1m25 0 1 1-1-1m362 0 1 1-1-1z"/><path style="fill:#575757;stroke:none" d="m944 362 1 1-1-1z"/><path style="fill:#b5b5b5;stroke:none" d="M286 363v3h1l-1-3m628 0 1 1-1-1z"/><path style="fill:#575757;stroke:none" d="m945 363 1 1-1-1z"/><path style="fill:#b5b5b5;stroke:none" d="M436 364v3h1l-1-3m25.333.667.334.666-.334-.666M525 364l1 1-1-1m390 0 1 1-1-1z"/><path style="fill:#575757;stroke:none" d="m946 364 1 1-1-1z"/><path style="fill:#b5b5b5;stroke:none" d="M260 365v4h1l-1-4m292 0 1 1-1-1m364 0 1 1-1-1z"/><path style="fill:#575757;stroke:none" d="m947 365 1 1-1-1m-660.667 1.667.334.666-.334-.666z"/><path style="fill:#b5b5b5;stroke:none" d="m524 366 1 1-1-1z"/><path style="fill:#575757;stroke:none" d="m917 366 1 1-1-1m31 0 1 1-1-1z"/><path style="fill:#b5b5b5;stroke:none" d="m462 367 1 1-1-1m91 0 1 1-1-1z"/><path style="fill:#575757;stroke:none" d="m918 367 1 1-1-1z"/><path style="fill:#b5b5b5;stroke:none" d="m949 367 1 1-1-1z"/><path style="fill:#575757;stroke:none" d="m919 368 1 1-1-1z"/><path style="fill:#b5b5b5;stroke:none" d="m950 368 1 1-1-1m-513 1 1 1-1-1m26 0 1 1-1-1m59 0 1 1-1-1z"/><path style="fill:#575757;stroke:none" d="m920 369 1 1-1-1z"/><path style="fill:#b5b5b5;stroke:none" d="m951 369 1 1-1-1m-664 1 1 1-1-1m234 0 1 1-1-1z"/><path style="fill:#575757;stroke:none" d="m921 370 1 1-1-1z"/><path style="fill:#b5b5b5;stroke:none" d="m952 370 1 1-1-1z"/><path style="fill:#575757;stroke:none" d="M261 371v3h1l-1-3m26 0 1 1-1-1m635 0 1 1-1-1z"/><path style="fill:#b5b5b5;stroke:none" d="m953 371 1 1-1-1m-515 1 1 1-1-1m27 0 1 1-1-1z"/><path style="fill:#575757;stroke:none" d="m923 372 1 1-1-1z"/><path style="fill:#b5b5b5;stroke:none" d="m954 372 1 1-1-1m-666 1 1 1-1-1m178 0 1 1-1-1m489 0 1 1-1-1m-694 1 1 1-1-1z"/><path style="fill:#575757;stroke:none" d="m288 374 1 1-1-1z"/><path style="fill:#b5b5b5;stroke:none" d="m439 374 1 1-1-1m28 0 1 1-1-1m93 0 1 1-1-1m60 0 1 1-1-1m6 0 1 1-1-1m330 0 1 1-1-1m-667 1 1 1-1-1m179 0 1 1-1-1m48 0 1 1-1-1m46 0 1 1-1-1m55 0 1 1-1-1m11 0 1 1-1-1m-188 1 1 1-1-1m124 0 1 1-1-1m50 0 1 1-1-1m15 0 1 1-1-1m297 0 1 1-1-1z"/><path style="fill:#575757;stroke:none" d="m262 377 1 1-1-1m28 0 1 1-1-1z"/><path style="fill:#b5b5b5;stroke:none" d="m566 377 1 1-1-1m45.667.333.666.334-.666-.334M927 377l1 1-1-1m-665 1 1 1-1-1m29 0 1 1-1-1m150 0 1 1-1-1m31 0 1 1-1-1m97 0 1 1-1-1m39 0 1 1-1-1m320 0 1 1-1-1z"/><path style="fill:#575757;stroke:none" d="m959 378 1 1-1-1z"/><path style="fill:#b5b5b5;stroke:none" d="m292 379 1 1-1-1m182 0 1 1-1-1m36 0 1 1-1-1m63 0 1 1-1-1m31.667.333.666.334-.666-.334M929 379l1 1-1-1z"/><path style="fill:#575757;stroke:none" d="m960 379 1 1-1-1m-697 1 1 1-1-1m30 0 1 1-1-1z"/><path style="fill:#b5b5b5;stroke:none" d="m476 380 1 1-1-1m32 0 1 1-1-1m70 0v1h5l-5-1m19 0v1h3l-3-1m34 0 1 1-1-1m299 0 1 1-1-1z"/><path style="fill:#575757;stroke:none" d="m961 380 1 1-1-1z"/><path style="fill:#b5b5b5;stroke:none" d="m263 381 1 1-1-1z"/><path style="fill:#575757;stroke:none" d="m295 381 1 1-1-1z"/><path style="fill:#b5b5b5;stroke:none" d="m296 381 1 1-1-1m183 0 1 1-1-1m26 0 1 1-1-1m30 0 1 1-1-1m396 0 1 1-1-1z"/><path style="fill:#575757;stroke:none" d="m962 381 1 1-1-1m-664.333 1.333.666.334-.666-.334z"/><path style="fill:#b5b5b5;stroke:none" d="M299 382v1h3l-3-1m6 0v1h8l-8-1z"/><path style="fill:#575757;stroke:none" d="m313.667 382.333.666.334-.666-.334z"/><path style="fill:#b5b5b5;stroke:none" d="M315 382v1h3l-3-1m129 0 1 1-1-1m38.667.333.666.334-.666-.334M502 382l1 1-1-1m32 0 1 1-1-1z"/><path style="fill:#575757;stroke:none" d="m932 382 1 1-1-1m31 0 1 1-1-1m-699 1 1 1-1-1z"/><path style="fill:#b5b5b5;stroke:none" d="m319 383 1 1-1-1m126 0 1 1-1-1m42 0v1h8l-8-1m46 0 1 1-1-1m7 0 1 1-1-1z"/><path style="fill:#575757;stroke:none" d="m933 383 1 1-1-1z"/><path style="fill:#b5b5b5;stroke:none" d="m964 383 1 1-1-1m-643 1 1 1-1-1m125 0 1 1-1-1m95 0 1 1-1-1m90 0 1 1-1-1z"/><path style="fill:#575757;stroke:none" d="m934 384 1 1-1-1m-669 1 1 1-1-1z"/><path style="fill:#b5b5b5;stroke:none" d="m322 385 1 1-1-1m125 0 1 1-1-1m84 0 1 1-1-1m11 0 1 1-1-1z"/><path style="fill:#575757;stroke:none" d="m935 385 1 1-1-1m30 0 1 1-1-1z"/><path style="fill:#b5b5b5;stroke:none" d="m448 386 1 1-1-1m82 0 1 1-1-1m13 0 1 1-1-1m87 0 1 1-1-1z"/><path style="fill:#575757;stroke:none" d="m936 386 1 1-1-1m-670 1 1 1-1-1m57 0 1 1-1-1z"/><path style="fill:#b5b5b5;stroke:none" d="m449 387 1 1-1-1m80 0 1 1-1-1m15 0 1 1-1-1z"/><path style="fill:#575757;stroke:none" d="m937 387 1 1-1-1z"/><path style="fill:#b5b5b5;stroke:none" d="m528 388 1 1-1-1z"/><path style="fill:#575757;stroke:none" d="m938 388 1 1-1-1z"/><path style="fill:#b5b5b5;stroke:none" d="M966 388v3h1l-1-3m-699 1 1 1-1-1m57 0 1 1-1-1m303 0 1 1-1-1z"/><path style="fill:#575757;stroke:none" d="m939 389 1 1-1-1m-671 1 1 1-1-1m56 0v5h1l-1-5z"/><path style="fill:#b5b5b5;stroke:none" d="m453 390 1 1-1-1m72 0 1 1-1-1m23 0 1 1-1-1m78 0 1 1-1-1z"/><path style="fill:#575757;stroke:none" d="m879.333 390.667.334.666-.334-.666M269 391l1 1-1-1m110 0 1 1-1-1z"/><path style="fill:#b5b5b5;stroke:none" d="m524 391 1 1-1-1m26 0 1 1-1-1m148 0 1 1-1-1m25 0 1 1-1-1z"/><path style="fill:#575757;stroke:none" d="m787 391 1 1-1-1m-517 1 1 1-1-1z"/><path style="fill:#b5b5b5;stroke:none" d="m379 392 1 1-1-1m77 0 1 1-1-1m66 0 1 1-1-1m101 0 1 1-1-1m164 0 1 1-1-1z"/><path style="fill:#575757;stroke:none" d="m811 392 1 1-1-1m44 0 1 1-1-1z"/><path style="fill:#b5b5b5;stroke:none" d="m879 392 1 1-1-1m62 0 1 1-1-1z"/><path style="fill:#575757;stroke:none" d="m965 392 1 1-1-1m-694 1 1 1-1-1m84 0 1 1-1-1z"/><path style="fill:#b5b5b5;stroke:none" d="m458 393 1 1-1-1m62 0 1 1-1-1m101 0 1 1-1-1z"/><path style="fill:#575757;stroke:none" d="m699 393 1 1-1-1m23 0 1 1-1-1z"/><path style="fill:#b5b5b5;stroke:none" d="m811 393 1 1-1-1m44 0 1 1-1-1m87 0 1 1-1-1m23 0 1 1-1-1z"/><path style="fill:#575757;stroke:none" d="m272 394 1 1-1-1z"/><path style="fill:#b5b5b5;stroke:none" d="m355 394 1 1-1-1z"/><path style="fill:#575757;stroke:none" d="m378 394 1 1-1-1z"/><path style="fill:#b5b5b5;stroke:none" d="m460 394 1 1-1-1m58 0 1 1-1-1m38 0 1 1-1-1m63 0 1 1-1-1m80 0 1 1-1-1m23 0 1 1-1-1z"/><path style="fill:#575757;stroke:none" d="m788 394 1 1-1-1m22 0 1 1-1-1z"/><path style="fill:#b5b5b5;stroke:none" d="m878 394 1 1-1-1m65 0 1 1-1-1z"/><path style="fill:#575757;stroke:none" d="m964 394 1 1-1-1m-691 1 1 1-1-1z"/><path style="fill:#b5b5b5;stroke:none" d="m324 395 1 1-1-1z"/><path style="fill:#575757;stroke:none" d="m356 395 1 1-1-1z"/><path style="fill:#b5b5b5;stroke:none" d="m462 395 1 1-1-1m54 0 1 1-1-1m42 0 1 1-1-1m59 0 1 1-1-1z"/><path style="fill:#575757;stroke:none" d="m700 395 1 1-1-1m21 0 1 1-1-1z"/><path style="fill:#b5b5b5;stroke:none" d="m810 395 1 1-1-1m46 0 1 1-1-1z"/><path style="fill:#575757;stroke:none" d="m877 395 1 1-1-1z"/><path style="fill:#b5b5b5;stroke:none" d="m944 395 1 1-1-1m20 0 1 1-1-1m-690 1 1 1-1-1z"/><path style="fill:#575757;stroke:none" d="m357 396 1 1-1-1z"/><path style="fill:#b5b5b5;stroke:none" d="m377 396 1 1-1-1m88 0 1 1-1-1m96 0 1 1-1-1m54 0 1 1-1-1z"/><path style="fill:#575757;stroke:none" d="m720 396 1 1-1-1z"/><path style="fill:#b5b5b5;stroke:none" d="m789 396 1 1-1-1m20 0 1 1-1-1z"/><path style="fill:#575757;stroke:none" d="m857 396 1 1-1-1z"/><path style="fill:#b5b5b5;stroke:none" d="m945 396 1 1-1-1m18 0 1 1-1-1z"/><path style="fill:#575757;stroke:none" d="m276 397 1 1-1-1m47 0 1 1-1-1m35 0 1 1-1-1z"/><path style="fill:#b5b5b5;stroke:none" d="m376 397 1 1-1-1m92 0 1 1-1-1m42.667.333.666.334-.666-.334m54 0 .666.334-.666-.334M612 397l1 1-1-1z"/><path style="fill:#575757;stroke:none" d="m719 397 1 1-1-1z"/><path style="fill:#b5b5b5;stroke:none" d="m790 397 1 1-1-1m18 0 1 1-1-1z"/><path style="fill:#575757;stroke:none" d="m858 397 1 1-1-1m17 0 1 1-1-1z"/><path style="fill:#b5b5b5;stroke:none" d="m946 397 1 1-1-1m16 0 1 1-1-1m-685 1 1 1-1-1z"/><path style="fill:#575757;stroke:none" d="m278 398 1 1-1-1m44 0 1 1-1-1m37 0 1 1-1-1m15 0 1 1-1-1z"/><path style="fill:#b5b5b5;stroke:none" d="m471.667 398.333.666.334-.666-.334M507 398l1 1-1-1m61.667.333.666.334-.666-.334M608 398l1 1-1-1z"/><path style="fill:#575757;stroke:none" d="m703 398 1 1-1-1z"/><path style="fill:#b5b5b5;stroke:none" d="m718 398 1 1-1-1m73 0 1 1-1-1z"/><path style="fill:#575757;stroke:none" d="m792 398 1 1-1-1z"/><path style="fill:#b5b5b5;stroke:none" d="m807 398 1 1-1-1m52 0 1 1-1-1z"/><path style="fill:#575757;stroke:none" d="m874 398 1 1-1-1z"/><path style="fill:#b5b5b5;stroke:none" d="m947 398 1 1-1-1m14 0 1 1-1-1m-682 1 1 1-1-1z"/><path style="fill:#575757;stroke:none" d="m280 399 1 1-1-1m41 0 1 1-1-1m40 0 1 1-1-1m11 0 1 1-1-1z"/><path style="fill:#b5b5b5;stroke:none" d="m373 399 1 1-1-1m103.667.333.666.334-.666-.334m26 0 .666.334-.666-.334M574 399v1h3l-3-1m29.667.333.666.334-.666-.334M704 399l1 1-1-1z"/><path style="fill:#575757;stroke:none" d="m705 399 1 1-1-1m11 0 1 1-1-1z"/><path style="fill:#b5b5b5;stroke:none" d="m793 399 1 1-1-1z"/><path style="fill:#575757;stroke:none" d="m794 399 1 1-1-1z"/><path style="fill:#b5b5b5;stroke:none" d="m805 399 1 1-1-1z"/><path style="fill:#575757;stroke:none" d="m861 399 1 1-1-1m11 0 1 1-1-1z"/><path style="fill:#b5b5b5;stroke:none" d="m873 399 1 1-1-1z"/><path style="fill:#575757;stroke:none" d="m949 399 1 1-1-1m10 0 1 1-1-1z"/><path style="fill:#b5b5b5;stroke:none" d="m281 400 1 1-1-1z"/><path style="fill:#575757;stroke:none" d="m282 400 1 1-1-1m37 0 1 1-1-1z"/><path style="fill:#b5b5b5;stroke:none" d="m320 400 1 1-1-1m43 0 1 1-1-1z"/><path style="fill:#575757;stroke:none" d="M364 400v1h6l-6-1z"/><path style="fill:#b5b5b5;stroke:none" d="m370 400 1 1-1-1m112 0v1h15l-15-1m101 0v1h14l-14-1m124 0 1 1-1-1z"/><path style="fill:#575757;stroke:none" d="M708 400v1h5l-5-1z"/><path style="fill:#b5b5b5;stroke:none" d="m713.667 400.333.666.334-.666-.334M796 400l1 1-1-1z"/><path style="fill:#575757;stroke:none" d="M797 400v1h5l-5-1z"/><path style="fill:#b5b5b5;stroke:none" d="m802.667 400.333.666.334-.666-.334m61 0 .666.334-.666-.334z"/><path style="fill:#575757;stroke:none" d="M865 400v1h5l-5-1z"/><path style="fill:#b5b5b5;stroke:none" d="m870 400 1 1-1-1m81 0 1 1-1-1z"/><path style="fill:#575757;stroke:none" d="m952.667 400.333.666.334-.666-.334m3 0 .666.334-.666-.334z"/><path style="fill:#b5b5b5;stroke:none" d="m957 400 1 1-1-1m-672.333 1.333.666.334-.666-.334z"/><path style="fill:#575757;stroke:none" d="m286 401 1 1-1-1m30 0 1 1-1-1z"/><path style="fill:#b5b5b5;stroke:none" d="m317 401 1 1-1-1m-27.333 1.333.666.334-.666-.334z"/><path style="fill:#575757;stroke:none" d="M291 402v1h21l-21-1z"/><path style="fill:#b5b5b5;stroke:none" d="m312.667 402.333.666.334-.666-.334z"/></svg>